<?xml version="1.0" encoding="UTF-8"?>
<svg id="HAND" xmlns="http://www.w3.org/2000/svg" viewBox="0 0 125 125">
  <defs>
    <style>
      .cls-1 {
        fill: #fbb03b;
      }

      .cls-1, .cls-2 {
        stroke: #f15a24;
        stroke-miterlimit: 10;
        stroke-width: .25px;
      }

      .cls-2 {
        fill: #f7931e;
      }

      .cls-3 {
        fill: #f15a24;
      }
    </style>
  </defs>
  <path class="cls-1" d="M97.93,26.17s-18.22-9.61-23.18-9.22-8.03,3.17-8.03,3.17c0,0-13.48,1.59-16.85,2.18s-14.99,4.02-21.11,13.28c0,0-3.66,7.65,5.55,8.03,0,0,15.36-3.26,18.03-4.66,0,0,6.96-.47,14.73,2.19s17.2,7.29,21.06,11.57l-8.43,14.48,8.97,5.34c3.99,2.37,8.9,2.8,13.15.94.64-.28,1.25-.6,1.8-.98,3.86-2.64,18.2-13.94,18.2-13.94,0,0,3.2-3.27,2.68-9.02-.53-5.75-8.75-20.94-8.75-20.94,0,0-2.94-4.53-7.63-3.86,0,0-5.35,1.85-6.38,1.68l-3.81-.25Z"/>
  <path class="cls-2" d="M28.77,45.62s22.46-8.72,30.52-6.61c8.06,2.11,23.78,5.81,31.71,17.18,0,0,5.67,10.98-4.44,11.83,0,0-3.52.1-5.65-.89,0,0,8.89,4.95,11.57,9.03,8.23,12.49-5.82,11.34-7.75,10.35,0,0,4.57,6.06,3,9.57-1.53,3.43-11.42,1.68-11.42,1.68l-3.72-1.2s8.3,9.42-2.77,11.2c0,0-6.34,1.78-19.87-3.32,0,0-15.86-6.38-21.6-10.27-5.75-3.9-11.89-8.65-11.89-8.65,0,0-8.46-7.07-10.44-7.53,0,0-5.95-3.24-5.55-6.74.4-3.5-.53-5.42,7-17.84,0,0,3.83-6.34,4.76-6.8s2.38-3.44,8.59-2.11,7.96,1.14,7.96,1.14Z"/>
  <path class="cls-3" d="M82.22,67.57s-15.8-10.22-22.29-13.09c0,0,9.12,5.79,10.65,6.79,3.54,2.3,11.64,6.3,11.64,6.3Z"/>
  <path class="cls-3" d="M57.85,71.79s17.59,7.09,28.07,15.27c0,0-27.18-14.72-28.07-15.27Z"/>
  <path class="cls-3" d="M50.41,83.63s18.58,9.19,23.16,13.39c0,0-19.55-10.27-23.16-13.39Z"/>
</svg>