<?xml version="1.0" encoding="UTF-8"?>
<svg id="INFO" xmlns="http://www.w3.org/2000/svg" viewBox="0 0 125 125">
  <defs>
    <style>
      .cls-1 {
        fill: #fbb03b;
      }

      .cls-1, .cls-2 {
        stroke: #f15a24;
        stroke-miterlimit: 10;
        stroke-width: .25px;
      }

      .cls-3 {
        fill: #f15a24;
        opacity: .68;
      }

      .cls-2 {
        fill: #f7931e;
      }
    </style>
  </defs>
  <path class="cls-1" d="M62.6,108.05v-.03c1.3-.21,2.33-1.33,2.33-1.33,6.1-8.52,40.54-10.45,43.54-11.13,3-.68,3.48-3.68,3.48-3.68,0,0-.05-60.28,0-65.46.05-5.18,1.71-11.74-23.85-8.68-19.84,2.38-24.66,9.5-25.62,11.46"/>
  <path class="cls-2" d="M62.51,29.19c-.96-1.96-5.78-9.09-25.62-11.46-25.56-3.06-23.9,3.5-23.85,8.68.05,5.18,0,65.46,0,65.46,0,0,.49,3,3.48,3.68,3,.68,37.45,2.61,43.54,11.13,0,0,1.04,1.12,2.33,1.33v.03s.08,0,.12-.01c.04,0,.08.01.12.01"/>
  <rect class="cls-3" x="62.42" y="29.15" width=".21" height="78.86" transform="translate(125.05 137.16) rotate(180)"/>
</svg>