<?xml version="1.0" encoding="UTF-8"?>
<svg id="MISSION" xmlns="http://www.w3.org/2000/svg" viewBox="0 0 125 125">
  <defs>
    <style>
      .cls-1 {
        fill: #fbb03b;
      }

      .cls-1, .cls-2, .cls-3 {
        stroke: #f15a24;
        stroke-miterlimit: 10;
        stroke-width: .24px;
      }

      .cls-2, .cls-4 {
        fill: #f7931e;
      }

      .cls-5 {
        fill: #f15a24;
      }

      .cls-3 {
        fill: none;
      }
    </style>
  </defs>
  <path class="cls-1" d="M96.25,59.9c-.54-23.02-16.13-37.46-34.11-37.46-16.15,0-34.11,16.32-33.39,37.46.38,11.12,5.26,20.89,12.08,27.67h0s5.44,5.58,5.04,11.86c0,0,0,0,0,0-1.12,1.18-1.83,2.91-1.83,4.85,0,3.56,2.4,6.27,5.36,6.45.53.03,1.24.06,2.04.07,0,.04,0,.07,0,.11,0,7.57,5.31,11.58,11.01,11.58s11.02-4.01,11.02-11.58c0-.05,0-.11,0-.16.79,0,1.51,0,2.1-.02,2.96-.1,5.36-2.89,5.36-6.45,0-1.94-.71-3.67-1.84-4.85h0s.68-6.58,4.96-11.86h0c7.25-6.79,12.49-16.57,12.23-27.67Z"/>
  <path class="cls-4" d="M79.07,99.43h-33.2s-2.22,2.53-1.81,5.44c.4,2.91,1.97,5.44,5.53,5.87h23.86s3.65.3,4.93-1.04,2.2-2.28,2.41-4.12.22-4.02-1.73-6.16Z"/>
  <rect class="cls-2" x="59.79" y="2.5" width="5.26" height="13.96" rx="2" ry="2"/>
  <rect class="cls-2" x="34.34" y="10.62" width="4.74" height="12.88" rx="1.8" ry="1.8" transform="translate(-1.31 30.96) rotate(-45)"/>
  <rect class="cls-2" x="86.3" y="10.62" width="4.74" height="12.88" rx="1.8" ry="1.8" transform="translate(139.3 91.82) rotate(-135)"/>
  <path class="cls-2" d="M83.34,55.45s-1.58-7.93-8.72-9.61c-6.5-1.53-11.12,3.87-11.91,4.86-.17.04-.33.02-.44,0-.79-1-5.42-6.38-11.9-4.86-7.14,1.68-8.72,9.61-8.72,9.61,0,0-2.57,7.59,4.91,15.63,7.47,8.04,13.98,14.06,13.98,14.06,0,0,1.44,1.08,1.92,1.12,0,0,0,0,0,0,0,0,.02,0,.03,0,0,0,.02,0,.03,0,0,0,0,0,0,0,.48-.04,1.92-1.12,1.92-1.12,0,0,6.51-6.02,13.98-14.06,7.47-8.04,4.91-15.63,4.91-15.63Z"/>
  <path class="cls-3" d="M96.25,59.9c-.54-23.02-16.13-37.46-34.11-37.46-16.15,0-34.11,16.32-33.39,37.46.38,11.12,5.26,20.89,12.08,27.67h0s5.44,5.58,5.04,11.86c0,0,0,0,0,0-1.12,1.18-1.83,2.91-1.83,4.85,0,3.56,2.4,6.27,5.36,6.45.53.03,1.24.06,2.04.07,0,.04,0,.07,0,.11,0,7.57,5.31,11.58,11.01,11.58s11.02-4.01,11.02-11.58c0-.05,0-.11,0-.16.79,0,1.51,0,2.1-.02,2.96-.1,5.36-2.89,5.36-6.45,0-1.94-.71-3.67-1.84-4.85h0s.68-6.58,4.96-11.86h0c7.25-6.79,12.49-16.57,12.23-27.67Z"/>
  <path class="cls-5" d="M51.36,110.68l22.09-.05s.83,10.91-10.69,11.86c0,0-11.06.34-11.4-11.81Z"/>
</svg>