<?xml version="1.0" encoding="UTF-8"?>
<svg id="HEART" xmlns="http://www.w3.org/2000/svg" viewBox="0 0 125 125">
  <defs>
    <style>
      .cls-1 {
        fill: #fbb03b;
      }

      .cls-1, .cls-2 {
        stroke: #f15a24;
        stroke-miterlimit: 10;
        stroke-width: .25px;
      }

      .cls-2 {
        fill: #f7931e;
      }
    </style>
  </defs>
  <path class="cls-2" d="M113.92,39.06s-3.89-17.75-21.51-21.51c-16.03-3.42-27.45,8.67-29.37,10.88-.42.08-.81.05-1.08-.01-1.96-2.24-13.36-14.29-29.36-10.87-17.62,3.76-21.51,21.51-21.51,21.51,0,0-6.33,17,12.1,35,18.44,18,34.49,31.48,34.49,31.48,0,0,3.56,2.41,4.74,2.5,0,0,0,0,0,0,.02,0,.05,0,.07,0,.02,0,.05,0,.07,0,0,0,0,0,0,0,1.18-.09,4.74-2.5,4.74-2.5,0,0,16.06-13.48,34.49-31.48,18.44-18,12.1-35,12.1-35Z"/>
  <path class="cls-1" d="M95.68,63.41s-10.12,0-10.84,0-.91-.24-.91-.24l-5.71-10.02c-2.29-3.93-4.61-2.17-5.7-.93-.37.42-.65.89-.86,1.41l-7.4,18.9-11.92-28.5c-2.2-3.15-4.39-1.38-5.24-.45-.23.25-.41.55-.54.86l-6.61,16.46c-.44,1.85-2.92,2.82-2.92,2.82l-20.92.18c-.61,0-1.21.17-1.71.52-.6.43-1.21,1.21-1.23,2.6-.01.97.28,1.68.67,2.18.6.78,1.56,1.19,2.55,1.19h24.1s2.33-.38,3.32-2.48c.99-2.09,5.76-13.83,5.76-13.83l11.83,28.22s2.94,3.74,5.36,0l8.56-20.98,4.75,8.04s1.32,1.58,2.85,1.58l9.11-.02,13.84-.06c1.07,0,2.11-.42,2.82-1.22.49-.55.89-1.33.9-2.41,0-.72-.15-1.32-.4-1.81-.63-1.28-2-2.03-3.42-2.03h-10.11Z"/>
</svg>