<?xml version="1.0" encoding="UTF-8"?>
<svg id="Logo16" xmlns="http://www.w3.org/2000/svg" viewBox="0 0 283.46 283.46">
  <defs>
    <style>
      .cls-1 {
        fill: #f89b38;
        stroke: #72451c;
        stroke-miterlimit: 10;
        stroke-width: 1.42px;
      }
    </style>
  </defs>
  <path class="cls-1" d="M282.05,141.73c0,77.49-62.82,140.31-140.31,140.31S1.42,219.23,1.42,141.73,64.24,1.42,141.73,1.42s140.31,62.82,140.31,140.31ZM205.07,46.7c.27-.32-1.31-2.25-1.64-2.64-4.4-5.27-14.47-12.21-20.45-15.91C118.37-11.83,36.97,35.13,16.61,102.36c-7.89,26.05-9.24,63.12,4.13,87.62,10.36,19,23.7,17.52,42,22.15,18.12,4.58,31.13,15.89,47.68,23.82,4.22,2.02,16.44,5.67,17.35,10.45,1.23,6.43-6.87,6.41-11.04,5.71-11.38-1.91-22.12-8.16-33.41-10.51-.3.29,2.49,3.5,2.85,3.89,12.82,14.1,38.13,24.55,56.99,25.54,63.36,3.35,119.21-49.11,128.45-110.2,2.69-17.78,2.11-52.42-9.94-66.74-9.71-11.54-22-11.15-35.25-15.01-18.83-5.48-34.13-18.12-51.43-27.02-4.75-2.45-17.64-6.11-15.99-13.25,1.43-6.19,13.41-2.36,17.39-1.21,9.66,2.78,18.61,7.88,28.69,9.1Z"/>
  <g>
    <path class="cls-1" d="M31.09,179.12v-70.46c0-1.36.48-2.52,1.45-3.48.96-.97,2.12-1.45,3.48-1.45h4.81c1.36,0,2.5.48,3.42,1.45.92.96,1.42,2.12,1.5,3.48v.24h.24c4.81-4.41,10.58-6.61,17.31-6.61,7.62,0,13.89,3.08,18.83,9.26,4.92,6.17,7.39,13.71,7.39,22.6s-2.47,16.54-7.39,22.66c-4.93,6.14-11.29,9.2-19.06,9.2-7.21,0-12.98-2.44-17.32-7.33v20.44c0,1.36-.48,2.52-1.44,3.48-.96.97-2.12,1.45-3.48,1.45h-4.81c-1.36,0-2.52-.48-3.48-1.45-.97-.96-1.45-2.12-1.45-3.48ZM48.7,121.1c-2.28,3.56-3.42,7.92-3.42,13.04s1.14,9.48,3.42,13.04c2.29,3.57,5.96,5.35,11.01,5.35s8.72-1.78,11-5.35c2.29-3.56,3.42-7.92,3.42-13.04s-1.14-9.48-3.42-13.04c-2.28-3.57-5.95-5.35-11-5.35s-8.72,1.78-11.01,5.35Z"/>
    <path class="cls-1" d="M100.1,159.64v-50.98c0-1.36.48-2.52,1.45-3.48.96-.97,2.12-1.45,3.48-1.45h4.81c1.36,0,2.52.48,3.48,1.45.96.96,1.44,2.12,1.44,3.48v1.09c4.74-4.97,10.59-7.46,17.55-7.46,9.31,0,15.27,3.04,17.92,9.14,4.57-6.1,10.82-9.14,18.76-9.14,6.81,0,12.06,1.64,15.75,4.93s5.53,8.13,5.53,14.54v37.88c0,1.37-.48,2.52-1.44,3.49-.96.96-2.12,1.44-3.49,1.44h-4.8c-1.36,0-2.52-.48-3.48-1.44s-1.45-2.12-1.45-3.49v-31.98c0-3.69-.84-6.59-2.52-8.72s-4.17-3.19-7.46-3.19c-3.92,0-7.09,1.64-9.5,4.93-2.4,3.29-3.6,7.21-3.6,11.78v27.17c0,1.37-.48,2.52-1.45,3.49s-2.12,1.44-3.48,1.44h-4.8c-1.37,0-2.53-.48-3.49-1.44-.96-.97-1.44-2.12-1.44-3.49v-31.98c0-7.94-3.41-11.91-10.23-11.91-3.85,0-6.96,1.66-9.32,4.99-2.37,3.33-3.55,7.23-3.55,11.72v27.17c0,1.37-.48,2.52-1.44,3.49-.96.96-2.12,1.44-3.48,1.44h-4.81c-1.36,0-2.52-.48-3.48-1.44s-1.45-2.12-1.45-3.49Z"/>
    <path class="cls-1" d="M204.7,179.12v-70.46c0-1.36.48-2.52,1.45-3.48.96-.97,2.12-1.45,3.48-1.45h4.81c1.36,0,2.5.48,3.42,1.45.92.96,1.42,2.12,1.5,3.48v.24h.24c4.81-4.41,10.58-6.61,17.31-6.61,7.62,0,13.89,3.08,18.83,9.26,4.92,6.17,7.39,13.71,7.39,22.6s-2.47,16.54-7.39,22.66c-4.93,6.14-11.29,9.2-19.06,9.2-7.21,0-12.98-2.44-17.32-7.33v20.44c0,1.36-.48,2.52-1.44,3.48-.96.97-2.12,1.45-3.48,1.45h-4.81c-1.36,0-2.52-.48-3.48-1.45-.97-.96-1.45-2.12-1.45-3.48ZM222.32,121.1c-2.28,3.56-3.42,7.92-3.42,13.04s1.14,9.48,3.42,13.04c2.29,3.57,5.96,5.35,11.01,5.35s8.72-1.78,11-5.35c2.29-3.56,3.42-7.92,3.42-13.04s-1.14-9.48-3.42-13.04c-2.28-3.57-5.95-5.35-11-5.35s-8.72,1.78-11.01,5.35Z"/>
  </g>
</svg>