<?xml version="1.0" encoding="UTF-8"?>
<svg id="Logo17" xmlns="http://www.w3.org/2000/svg" viewBox="0 0 283.46 283.46">
  <defs>
    <style>
      .cls-1 {
        fill: #f89b38;
        stroke: #72451c;
        stroke-miterlimit: 10;
        stroke-width: 1.42px;
      }
    </style>
  </defs>
  <path class="cls-1" d="M282.05,141.73c0,77.49-62.82,140.31-140.31,140.31S1.42,219.23,1.42,141.73,64.24,1.42,141.73,1.42s140.31,62.82,140.31,140.31ZM205.07,46.7c.27-.32-1.31-2.25-1.64-2.64-4.4-5.27-14.47-12.21-20.45-15.91C118.37-11.83,36.97,35.13,16.61,102.36c-7.89,26.05-9.24,63.12,4.13,87.62,10.36,19,23.7,17.52,42,22.15,18.12,4.58,31.13,15.89,47.68,23.82,4.22,2.02,16.44,5.67,17.35,10.45,1.23,6.43-6.87,6.41-11.04,5.71-11.38-1.91-22.12-8.16-33.41-10.51-.3.29,2.49,3.5,2.85,3.89,12.82,14.1,38.13,24.55,56.99,25.54,63.36,3.35,119.21-49.11,128.45-110.2,2.69-17.78,2.11-52.42-9.94-66.74-9.71-11.54-22-11.15-35.25-15.01-18.83-5.48-34.13-18.12-51.43-27.02-4.75-2.45-17.64-6.11-15.99-13.25,1.43-6.19,13.41-2.36,17.39-1.21,9.66,2.78,18.61,7.88,28.69,9.1Z"/>
  <path class="cls-1" d="M26.88,147.46v-40.84c0-.79.28-1.46.84-2.02.56-.56,1.23-.84,2.02-.84h2.79c.79,0,1.45.28,1.98.84.53.56.82,1.23.87,2.02v.14h.14c2.79-2.56,6.13-3.83,10.03-3.83,4.42,0,8.05,1.79,10.91,5.37,2.85,3.58,4.28,7.95,4.28,13.1s-1.43,9.58-4.28,13.13c-2.86,3.56-6.54,5.33-11.05,5.33-4.18,0-7.53-1.41-10.04-4.25v11.85c0,.79-.28,1.46-.83,2.02-.56.56-1.23.84-2.02.84h-2.79c-.79,0-1.46-.28-2.02-.84-.56-.56-.84-1.23-.84-2.02ZM37.09,113.84c-1.32,2.06-1.98,4.59-1.98,7.56s.66,5.5,1.98,7.56c1.33,2.07,3.45,3.1,6.38,3.1s5.05-1.03,6.37-3.1c1.33-2.06,1.98-4.59,1.98-7.56s-.66-5.5-1.98-7.56c-1.32-2.07-3.45-3.1-6.37-3.1s-5.05,1.03-6.38,3.1Z"/>
  <path class="cls-1" d="M65.84,135.4c-.79-.56-1.19-1.14-1.19-1.74s.4-1.21,1.19-1.81l1.6-1.25c1.11-.79,1.9-1.19,2.36-1.19.51,0,1.26.37,2.23,1.12,2,1.58,4.76,2.37,8.29,2.37,1.95,0,3.58-.43,4.88-1.29,1.3-.86,1.95-1.8,1.95-2.82,0-.93-.53-1.67-1.6-2.23-1.07-.56-2.42-.95-4.04-1.18-1.63-.23-3.38-.57-5.26-1.02-1.88-.44-3.64-.98-5.26-1.6-1.63-.63-2.97-1.66-4.04-3.1-1.07-1.44-1.6-3.2-1.6-5.3,0-3.81,1.44-6.66,4.32-8.57,2.88-1.91,6.64-2.86,11.29-2.86,5.06,0,9.25,1.46,12.54,4.39.84.65,1.25,1.3,1.25,1.95,0,.56-.39,1.19-1.18,1.88l-1.54,1.46c-.79.79-1.46,1.19-2.02,1.19-.61,0-1.3-.4-2.09-1.19-1.91-1.81-4.3-2.72-7.17-2.72-2,0-3.58.3-4.74.9-1.16.61-1.74,1.44-1.74,2.51s.77,1.95,2.3,2.51c1.54.56,3.39,1,5.57,1.33,2.18.32,4.36.77,6.52,1.32s4.01,1.59,5.54,3.1c1.54,1.51,2.3,3.49,2.3,5.95,0,4.04-1.51,7.11-4.53,9.2-3.02,2.09-6.74,3.14-11.15,3.14-5.9,0-10.89-1.49-14.98-4.46Z"/>
  <path class="cls-1" d="M104.34,134.71c-3.23-3.44-4.84-7.87-4.84-13.31s1.62-9.87,4.84-13.31c3.23-3.44,7.63-5.16,13.21-5.16s9.33,1.51,12.13,4.53c2.78,3.02,4.32,7.27,4.6,12.75.05.79-.2,1.53-.73,2.19-.54.67-1.29,1.01-2.27,1.01h-22.86c.09,2.56,1.04,4.64,2.86,6.24,1.81,1.6,3.9,2.4,6.27,2.4,3.34,0,6.11-.95,8.29-2.86.88-.83,1.57-1.29,2.05-1.36.49-.07,1.38.22,2.69.87l2.02,1.19c.65.37,1.03.93,1.15,1.67.11.74-.09,1.4-.6,1.95-3.71,4.23-8.92,6.34-15.61,6.34-5.57,0-9.98-1.72-13.21-5.16ZM108.42,116.86h17.14c0-1.34-.71-2.84-2.13-4.49s-3.38-2.47-5.89-2.47-4.43.65-6.03,1.95c-1.6,1.3-2.64,2.97-3.1,5.01Z"/>
  <path class="cls-1" d="M140.47,127.11v-20.49c0-.79.28-1.46.84-2.02.56-.56,1.23-.84,2.02-.84h2.79c.79,0,1.46.28,2.02.84.56.56.83,1.23.83,2.02v18.05c0,2.46.5,4.24,1.5,5.33,1,1.09,2.59,1.63,4.77,1.63,2.93,0,5.05-.87,6.38-2.61,1.32-1.75,1.98-3.85,1.98-6.31v-16.1c0-.79.28-1.46.83-2.02s1.23-.84,2.02-.84h2.78c.79,0,1.46.28,2.02.84s.83,1.23.83,2.02v29.55c0,.79-.28,1.46-.83,2.02-.56.56-1.24.83-2.02.83h-2.78c-.79,0-1.45-.28-1.99-.83-.53-.56-.82-1.23-.87-2.02v-.62h-.14c-2.32,2.88-5.69,4.32-10.1,4.32-1.63,0-3.15-.19-4.57-.59-1.42-.39-2.78-1.03-4.08-1.92-1.3-.88-2.34-2.19-3.1-3.94s-1.15-3.85-1.15-6.31Z"/>
  <path class="cls-1" d="M193.57,139.86c-4.5,0-8.18-1.78-11.04-5.33-2.86-3.55-4.29-7.93-4.29-13.13s1.43-9.58,4.29-13.13c2.86-3.56,6.54-5.33,11.04-5.33,4,0,7.34,1.28,10.04,3.83v-14.5c0-.79.28-1.46.83-2.02.56-.56,1.23-.83,2.02-.83h2.78c.79,0,1.46.28,2.02.83.56.56.83,1.24.83,2.02v43.9c0,.79-.28,1.46-.83,2.02-.56.56-1.24.83-2.02.83h-2.78c-.79,0-1.45-.28-1.99-.83-.53-.56-.82-1.23-.87-2.02v-.56h-.14c-2.51,2.84-5.81,4.25-9.9,4.25ZM189.15,128.95c1.33,2.07,3.45,3.1,6.37,3.1s5.05-1.03,6.38-3.1c1.32-2.06,1.98-4.59,1.98-7.56s-.66-5.5-1.98-7.56c-1.33-2.07-3.45-3.1-6.38-3.1s-5.05,1.03-6.37,3.1c-1.32,2.06-1.98,4.59-1.98,7.56s.66,5.5,1.98,7.56Z"/>
  <path class="cls-1" d="M223.08,134.71c-3.23-3.44-4.84-7.87-4.84-13.31s1.62-9.87,4.84-13.31c3.23-3.44,7.63-5.16,13.21-5.16s9.98,1.72,13.2,5.16c3.23,3.44,4.84,7.88,4.84,13.31s-1.61,9.87-4.84,13.31c-3.23,3.44-7.63,5.16-13.2,5.16s-9.98-1.72-13.21-5.16ZM229.53,113.84c-1.58,2.06-2.37,4.59-2.37,7.56s.79,5.5,2.37,7.56c1.58,2.07,3.83,3.1,6.76,3.1s5.18-1.03,6.76-3.1c1.58-2.06,2.36-4.59,2.36-7.56s-.79-5.5-2.36-7.56c-1.58-2.07-3.83-3.1-6.76-3.1s-5.18,1.03-6.76,3.1Z"/>
  <path class="cls-1" d="M125.49,178.78c-1.91,0-2.86-.72-2.86-2.16v-3.48c0-1.44.95-2.16,2.86-2.16h11.64c1.91,0,2.86.72,2.86,2.16v3.48c0,1.44-.95,2.16-2.86,2.16h-11.64Z"/>
  <path class="cls-1" d="M152.88,192.51l-8.64-29.83c-.28-.93-.19-1.62.24-2.06.44-.44,1.06-.66,1.85-.66h3.07c1.11,0,1.92.19,2.4.56.49.37.87,1.11,1.15,2.23l5.23,21.18h.14l5.85-21.18c.32-1.12.73-1.86,1.22-2.23.49-.37,1.29-.56,2.4-.56h1.95c1.07,0,1.87.21,2.4.63s.94,1.14,1.22,2.16l5.85,21.18h.14l5.22-21.18c.28-1.12.67-1.86,1.19-2.23.51-.37,1.3-.56,2.37-.56h3.07c.79,0,1.4.22,1.84.66s.52,1.13.24,2.06l-8.64,29.83c-.19.79-.63,1.44-1.33,1.95s-1.46.77-2.3.77h-2.65c-.84,0-1.6-.26-2.3-.77s-1.14-1.16-1.32-1.95l-5.93-20.91h-.14l-5.93,20.91c-.19.79-.63,1.44-1.32,1.95-.7.51-1.46.77-2.3.77h-2.65c-.83,0-1.6-.26-2.3-.77s-1.14-1.16-1.33-1.95Z"/>
  <path class="cls-1" d="M196.29,184.98c0-5.81,3.58-9.48,10.73-11.01l3.56-.7c4.28-.79,7.34-1.49,9.2-2.09v-1.05c0-2.88-2.23-4.37-6.69-4.46-1.44,0-2.61.13-3.52.38-.91.26-1.5.58-1.78.98-.28.39-.51.82-.69,1.29-.19.47-.32.9-.39,1.29-.07.4-.32.72-.77.98s-1.08.36-1.92.31l-4.11-.2c-.74-.05-1.23-.35-1.46-.91s-.26-1.23-.07-2.02c.69-2.93,2.39-5.1,5.09-6.52,2.69-1.42,5.9-2.13,9.61-2.13,2.14,0,4.02.14,5.65.42,1.62.28,3.2.8,4.74,1.57,1.54.77,2.72,1.95,3.56,3.56.83,1.6,1.25,3.61,1.25,6.03v18.61c0,1.07.09,2.16.28,3.27.14.74-.02,1.37-.49,1.88s-1.25.77-2.37.77h-2.93c-.79,0-1.46-.29-2.02-.87-.56-.58-.88-1.36-.98-2.33-3.3,2.69-7.13,4.04-11.5,4.04-3.44,0-6.3-1.01-8.57-3.03s-3.41-4.71-3.41-8.05ZM205.22,184.7c0,1.34.52,2.42,1.57,3.2,1.05.79,2.36,1.19,3.94,1.19,2.27,0,4.36-.56,6.23-1.67,1.88-1.12,2.82-2.72,2.82-4.81v-5.02c-.88.47-2.23.88-4.04,1.25l-4.67.98c-1.3.28-2.31.56-3.03.84s-1.37.75-1.95,1.43c-.58.67-.87,1.54-.87,2.61Z"/>
  <path class="cls-1" d="M237.55,187.14v-21.05h-2.65c-.79,0-1.41-.23-1.85-.7s-.66-1.07-.66-1.81v-1.11c0-.74.22-1.35.66-1.81s1.05-.7,1.85-.7h2.65v-9.61c0-.74.29-1.41.87-1.99.58-.58,1.24-.87,1.99-.87h2.78c.74,0,1.41.29,1.98.87s.87,1.25.87,1.99v9.61h5.09c.74,0,1.34.23,1.81.7s.7,1.07.7,1.81v1.11c0,.74-.23,1.35-.7,1.81s-1.07.7-1.81.7h-5.09v17.84c0,1.54.26,2.64.77,3.31s1.53,1.01,3.07,1.01c.32,0,.72-.02,1.19-.07.46-.05.81-.07,1.04-.07,1.02,0,1.53.53,1.53,1.6v2.37c0,1.07-.22,1.85-.66,2.34-.44.49-1.15.8-2.13.94-1.58.18-2.9.28-3.98.28-3.34,0-5.73-.71-7.17-2.13s-2.16-3.54-2.16-6.37Z"/>
</svg>